<svg width="1281" height="1174" viewBox="0 0 1281 1174" fill="none" xmlns="http://www.w3.org/2000/svg">
<path id="Mask" opacity="0.05" d="M768.314 428.511C484.323 331.314 618.517 157.599 386.199 34.8279C229.428 -48.0201 97.0068 31.8245 38.2769 119.27C-23.2184 210.833 3.32782 345.119 28.6505 409.187C77.2366 532.113 215.676 568.219 269.308 655.476C322.941 742.733 281.685 911.334 362.821 1066.85C443.957 1222.36 689.929 1182.75 768.314 1109.77C850.279 1033.46 895.818 911.629 1009.16 817.323C1109.5 733.832 1197.01 667.797 1315.14 538.665C1349.95 500.61 1443.61 378.278 1443.61 378.278C1443.61 378.278 1245.46 445.045 1172.81 459.852C1006.33 493.779 900.116 473.621 768.314 428.511Z" fill="url(#paint0_linear_6_97)"/>
<defs>
<linearGradient id="paint0_linear_6_97" x1="1443.61" y1="0" x2="0.607422" y2="0" gradientUnits="userSpaceOnUse">
<stop stop-color="#009DD1"/>
<stop offset="1" stop-color="#0064A4"/>
</linearGradient>
</defs>
</svg>
